<?xml version="1.0" ?><svg height="100%" viewBox="0 0 32 32" width="100%" xmlns="http://www.w3.org/2000/svg" fill="#fff"><path d="M31,11.552l-11.595,5.135c-0.132,0.058 -0.269,0.086 -0.405,0.086l0,1.239c0,0.553 -0.448,1 -1,1l-4,0c-0.552,0 -1,-0.447 -1,-1l-0,-1.243c-0.136,0 -0.274,-0.028 -0.406,-0.086l-11.594,-5.131l-0,12.448c-0,0.796 0.316,1.559 0.879,2.121c0.562,0.563 1.325,0.879 2.121,0.879c5.154,0 18.846,0 24,-0c0.796,0 1.559,-0.316 2.121,-0.879c0.563,-0.562 0.879,-1.325 0.879,-2.121l-0,-12.448Zm-14,2.448l0,3.012c0,0 -2,0 -2,0c-0,0 -0,-3.012 -0,-3.012l2,0Zm-10,-9l-3,-0c-0.796,-0 -1.559,0.316 -2.121,0.879c-0.563,0.562 -0.879,1.325 -0.879,2.121l0,1.365l12,5.311l-0,-1.676c0,-0.552 0.448,-1 1,-1l4,-0c0.552,-0 1,0.448 1,1l0,1.679l12,-5.315l-0,-1.364c0,-0.796 -0.316,-1.559 -0.879,-2.121c-0.562,-0.563 -1.325,-0.879 -2.121,-0.879l-3,-0l0,-1c0,-1.657 -1.343,-3 -3,-3l-12,0c-1.657,0 -3,1.343 -3,3l-0,1Zm16,-0l-14,-0l-0,-1c-0,-0.552 0.448,-1 1,-1c0,0 12,0 12,0c0.552,0 1,0.448 1,1l0,1Z"/></svg>