<?xml version="1.0" ?><svg viewBox="0 0 512 512" xmlns="http://www.w3.org/2000/svg"><defs><style>.cls-1{fill:#fff;}.cls-2{fill:#fff;}.cls-3{fill:#fff;}.cls-4{fill:#fff;}.cls-5{fill:#fff;}.cls-6{fill:#fff;}.cls-7{fill:#fff;}.cls-8{fill:#fff;}.cls-9{fill:#fff;}.cls-10{fill:#fff;}.cls-11{fill:#fff;}.cls-12{fill:#fff;}.cls-13{fill:#fff;}.cls-14{fill:#fff;}.cls-15{fill:#fff;}.cls-16{fill:#fff;}.cls-17{fill:#fff;}.cls-18{fill:#fff;}</style></defs><title/><g data-name="/ FILLED_OUTLINE" id="_FILLED_OUTLINE"><rect class="cls-1" height="192" rx="32" width="192" x="24" y="264"/><path class="cls-2" d="M67.5777,333.78882A8,8,0,0,0,56,340.94427v38.11146a8,8,0,0,0,11.5777,7.15539L88,376V344Z"/><rect class="cls-3" height="64" rx="16" width="96" x="88" y="328"/><path class="cls-4" d="M120.00006,392H168a16,16,0,0,0,16-16V344a15.93931,15.93931,0,0,0-.911-5.28156A64.00534,64.00534,0,0,1,120.00006,392Z"/><rect class="cls-5" height="176" rx="32" width="176" x="280" y="248"/><path class="cls-6" d="M400,320H336a16,16,0,0,0-16,16v24a16,16,0,0,0,16,16h56l22.44532,14.96351a1,1,0,0,0,1.55468-.832V336A16,16,0,0,0,400,320Z"/><rect class="cls-6" height="208" rx="32" width="208" x="64" y="24"/><rect class="cls-7" height="128" rx="16" width="96" x="120" y="64"/><rect class="cls-5" height="16" width="48" x="144" y="88"/><rect class="cls-5" height="16" width="48" x="144" y="120"/><rect class="cls-5" height="16" width="48" x="144" y="152"/><rect class="cls-8" height="240" rx="32" width="240" x="248" y="48"/><rect class="cls-9" height="112" rx="16" width="112" x="344" y="96"/><path class="cls-10" d="M344,136H456V112a16,16,0,0,0-16-16H360a16,16,0,0,0-16,16Z"/><rect class="cls-9" height="40" width="16" x="416" y="72"/><rect class="cls-9" height="40" width="16" x="368" y="72"/><rect class="cls-10" height="16" width="16" x="416" y="160"/><rect class="cls-10" height="16" width="16" x="384" y="160"/><path class="cls-11" d="M320.0755,328H191.9245a16,16,0,0,0-16,16L176,496H336l.0755-152A16,16,0,0,0,320.0755,328Z"/><path class="cls-12" d="M208,328l4.97015,19.88055A16,16,0,0,0,228.49243,360h55.01514a16,16,0,0,0,15.52228-12.11945L304,328Z"/><rect class="cls-12" height="16" width="16" x="200" y="480"/><rect class="cls-12" height="16" width="16" x="200" y="440"/><rect class="cls-12" height="16" width="16" x="232" y="440"/><rect class="cls-12" height="16" width="16" x="264" y="440"/><rect class="cls-12" height="16" width="16" x="200" y="400"/><rect class="cls-12" height="16" width="16" x="232" y="400"/><rect class="cls-12" height="16" width="16" x="264" y="400"/><rect class="cls-12" height="16" width="16" x="296" y="400"/><path class="cls-12" d="M335.88879,341.68182A159.99481,159.99481,0,0,1,176.00018,496H336V342.50433C335.97424,342.2265,335.92859,341.95532,335.88879,341.68182Z"/><path class="cls-13" d="M200,494.21008V496h16v-5.04956A159.12836,159.12836,0,0,1,200,494.21008Z"/><rect class="cls-13" height="16" width="16" x="264" y="480"/><rect class="cls-13" height="16" width="16" x="296" y="480"/><rect class="cls-12" height="16" width="16" x="232" y="480"/><path class="cls-13" d="M245.79651,480Q239.06757,483.26807,232,485.91333V496h16V480Z"/><rect class="cls-13" height="16" width="16" x="296" y="440"/><path class="cls-12" d="M296,440v1.80768c.53-.60071,1.06256-1.199,1.58362-1.80768Z"/><path class="cls-14" d="M131.40515,191.32263A15.98587,15.98587,0,0,0,136,192h64a16,16,0,0,0,16-16V96.00006A96.011,96.011,0,0,1,131.40515,191.32263Z"/><path class="cls-15" d="M355.68628,207.3949A15.97514,15.97514,0,0,0,360,208h80a16,16,0,0,0,16-16V112a15.97514,15.97514,0,0,0-.6051-4.31372A112.03611,112.03611,0,0,1,355.68628,207.3949Z"/><path class="cls-16" d="M389.23718,376H392l22.44531,14.9635a1,1,0,0,0,1.55469-.832V336a15.95687,15.95687,0,0,0-.82733-5.053A71.91452,71.91452,0,0,1,389.23718,376Z"/><path class="cls-17" d="M192,168v-8.52338A96.55759,96.55759,0,0,1,183.46228,168Z"/><path class="cls-18" d="M455.93011,110.61572c-.01751-.19348-.038-.386-.06243-.57745-.02741-.22376-.065-.44415-.10151-.66492a16.73078,16.73078,0,0,0-.37127-1.68707A111.32509,111.32509,0,0,1,448.6413,136H456V112C456,111.53265,455.96936,111.07288,455.93011,110.61572Z"/><circle class="cls-10" cx="328" cy="208" r="48"/><polygon class="cls-9" points="338.343 229.657 320 211.313 320 184 336 184 336 204.687 349.657 218.343 338.343 229.657"/><path class="cls-18" d="M308.28558,251.762A47.99518,47.99518,0,0,0,371.762,188.28552,96.216,96.216,0,0,1,308.28558,251.762Z"/><path d="M456,40H280c-1.10669,0-2.19965.05725-3.28387.14587A40.05473,40.05473,0,0,0,240,16H96A40.04521,40.04521,0,0,0,56,56V200a40.04521,40.04521,0,0,0,40,40H240v16a40.06761,40.06761,0,0,0,32,39.19507V320H224V296a40.04521,40.04521,0,0,0-40-40H56a40.04521,40.04521,0,0,0-40,40V424a40.04521,40.04521,0,0,0,40,40H167.98407L168,496.00391l16-.00782L183.92432,344a8.00916,8.00916,0,0,1,8-8h9.8294l3.45526,13.8208A23.96534,23.96534,0,0,0,228.49219,368h55.01562A23.96534,23.96534,0,0,0,306.791,349.8208L310.24628,336h9.8294a8.00833,8.00833,0,0,1,8,7.99609l-.07568,152,16,.00782L344.03186,432H424a40.04521,40.04521,0,0,0,40-40V295.19507A40.06761,40.06761,0,0,0,496,256V80A40.04521,40.04521,0,0,0,456,40ZM167.92432,344.00391,167.94421,384H104a8.00917,8.00917,0,0,1-8-8V344a8.00917,8.00917,0,0,1,8-8h64a7.89952,7.89952,0,0,1,1.263.11243A23.89557,23.89557,0,0,0,167.92432,344.00391ZM208,320H191.92432a23.84261,23.84261,0,0,0-11.96289,3.20764A23.99228,23.99228,0,0,0,168,320H104a24.019,24.019,0,0,0-21.071,12.52051l-11.77375-5.88672A15.99947,15.99947,0,0,0,48,340.94434v38.11132a15.97583,15.97583,0,0,0,23.15527,14.31055L82.929,387.47949A24.019,24.019,0,0,0,104,400h63.95221l.02386,48H56a24.0275,24.0275,0,0,1-24-24V296a24.0275,24.0275,0,0,1,24-24H184a24.0275,24.0275,0,0,1,24,24ZM80,348.94415v22.1117l-16,7.99981V340.94434ZM240,80V224H96a24.0275,24.0275,0,0,1-24-24V56A24.0275,24.0275,0,0,1,96,32H240a24.01969,24.01969,0,0,1,21.17548,12.71887A40.03229,40.03229,0,0,0,240,80Zm51.26855,265.93994A7.98824,7.98824,0,0,1,283.50781,352H228.49219a7.98824,7.98824,0,0,1-7.76074-6.06006L218.2464,336h75.5072ZM337.945,328H400a8.00917,8.00917,0,0,1,8,8v41.05176L394.42236,368H344.06372l.012-24A23.90105,23.90105,0,0,0,337.945,328ZM448,392a24.02687,24.02687,0,0,1-24,24H344.03986l.01593-32h45.52185l20.42773,13.61816A8.99985,8.99985,0,0,0,424,390.13135V336a24.02687,24.02687,0,0,0-24-24H336a24.08582,24.08582,0,0,0-17.87646,8H288V296H448Zm32-136a24.02687,24.02687,0,0,1-24,24H280a24.02687,24.02687,0,0,1-24-24V80a24.02687,24.02687,0,0,1,24-24H456a24.02687,24.02687,0,0,1,24,24Z"/><rect height="16" width="16" x="200" y="480"/><rect height="16" width="16" x="232" y="480"/><rect height="16" width="16" x="264" y="480"/><rect height="16" width="16" x="296" y="480"/><rect height="16" width="16" x="200" y="440"/><rect height="16" width="16" x="232" y="440"/><rect height="16" width="16" x="264" y="440"/><rect height="16" width="16" x="296" y="440"/><rect height="16" width="16" x="200" y="400"/><rect height="16" width="16" x="232" y="400"/><rect height="16" width="16" x="264" y="400"/><rect height="16" width="16" x="296" y="400"/><path d="M440,88h-8V72H416V88H384V72H368V88h-8a24.0275,24.0275,0,0,0-24,24v40.58057A55.99719,55.99719,0,1,0,383.41943,216H440a24.0275,24.0275,0,0,0,24-24V112A24.0275,24.0275,0,0,0,440,88ZM328,248a40,40,0,1,1,40-40A40.04521,40.04521,0,0,1,328,248Zm120-56a8.00917,8.00917,0,0,1-8,8H383.41943A56.14739,56.14739,0,0,0,352,157.41437V144h96Zm0-64H352V112a8.00917,8.00917,0,0,1,8-8h8v8h16v-8h32v8h16v-8h8a8.00917,8.00917,0,0,1,8,8Z"/><path d="M200,56H136a24.02687,24.02687,0,0,0-24,24v96a24.02687,24.02687,0,0,0,24,24h64a24.02687,24.02687,0,0,0,24-24V80A24.02687,24.02687,0,0,0,200,56Zm8,120a8.00917,8.00917,0,0,1-8,8H136a8.00917,8.00917,0,0,1-8-8V80a8.00917,8.00917,0,0,1,8-8h64a8.00917,8.00917,0,0,1,8,8Z"/><rect height="16" width="48" x="144" y="88"/><rect height="16" width="48" x="144" y="120"/><rect height="16" width="48" x="144" y="152"/><polygon points="336 184 320 184 320 211.313 338.343 229.657 349.657 218.343 336 204.687 336 184"/><rect height="16" width="16" x="416" y="160"/><rect height="16" width="16" x="384" y="160"/></g></svg>