<svg xmlns="http://www.w3.org/2000/svg" viewBox="0 0 58.36 24" height='25px'>
  <title>Ресурс 3</title>
  <g>
    <g style="isolation: isolate">
      <path d="M28.78,17.85a6,6,0,0,1-2.28-2.32,6.64,6.64,0,0,1-.84-3.35,6.7,6.7,0,0,1,.84-3.36,5.89,5.89,0,0,1,2.28-2.31,6.43,6.43,0,0,1,3.28-.83,6.67,6.67,0,0,1,2.87.6A5.74,5.74,0,0,1,37.06,8l-2.1,2a3.34,3.34,0,0,0-2.74-1.46,3.15,3.15,0,0,0-1.68.44,3.05,3.05,0,0,0-1.15,1.26,4.12,4.12,0,0,0-.4,1.87,4.1,4.1,0,0,0,.4,1.86,3,3,0,0,0,1.15,1.26,3.15,3.15,0,0,0,1.68.45A3.35,3.35,0,0,0,35,14.28l2.1,2a5.64,5.64,0,0,1-2.13,1.75,6.67,6.67,0,0,1-2.87.61A6.53,6.53,0,0,1,28.78,17.85Z" style="fill: #fff"/>
      <path d="M39.73,18.3a6.47,6.47,0,0,1-2.16-1l1.08-2.61a6.8,6.8,0,0,0,1.81.9,6.65,6.65,0,0,0,2,.34q1.89,0,1.89-1a.85.85,0,0,0-.54-.8,9.76,9.76,0,0,0-1.73-.54,15.71,15.71,0,0,1-2.2-.65A3.74,3.74,0,0,1,38.4,11.8a3.16,3.16,0,0,1-.63-2.07,3.75,3.75,0,0,1,.58-2.06,4,4,0,0,1,1.74-1.46,6.81,6.81,0,0,1,2.83-.53A9.57,9.57,0,0,1,45.18,6a6.8,6.8,0,0,1,2,.82l-1,2.62a6.41,6.41,0,0,0-3.22-1,2.55,2.55,0,0,0-1.43.31,1,1,0,0,0-.44.81.78.78,0,0,0,.53.75,8.73,8.73,0,0,0,1.71.52,15.31,15.31,0,0,1,2.2.65A3.78,3.78,0,0,1,47,12.58a3.08,3.08,0,0,1,.64,2.06,3.7,3.7,0,0,1-.58,2,4,4,0,0,1-1.75,1.45,6.48,6.48,0,0,1-2.82.55A10.07,10.07,0,0,1,39.73,18.3Z" style="fill: #fff"/>
      <path d="M50.47,18.3a6.41,6.41,0,0,1-2.15-1l1.07-2.61a7,7,0,0,0,1.82.9,6.58,6.58,0,0,0,2,.34c1.26,0,1.9-.34,1.9-1a.86.86,0,0,0-.55-.8,9.49,9.49,0,0,0-1.73-.54,15.14,15.14,0,0,1-2.19-.65,3.67,3.67,0,0,1-1.51-1.12,3.1,3.1,0,0,1-.63-2.07,3.75,3.75,0,0,1,.58-2.06,3.93,3.93,0,0,1,1.73-1.46,6.84,6.84,0,0,1,2.83-.53A9.51,9.51,0,0,1,55.92,6a6.68,6.68,0,0,1,2,.82l-1,2.62a6.43,6.43,0,0,0-3.22-1,2.53,2.53,0,0,0-1.43.31,1,1,0,0,0-.45.81.79.79,0,0,0,.53.75,9.2,9.2,0,0,0,1.71.52,14.93,14.93,0,0,1,2.2.65,3.71,3.71,0,0,1,1.51,1.11,3.08,3.08,0,0,1,.64,2.06,3.7,3.7,0,0,1-.58,2A4.07,4.07,0,0,1,56,18.13a6.54,6.54,0,0,1-2.82.55A10.09,10.09,0,0,1,50.47,18.3Z" style="fill: #fff"/>
    </g>
    <path d="M0,0H21L19.1,21.6,10.5,24,1.9,21.6ZM17.1,4.4H3.9L4.1,7H14.2l-.3,2.7H7.3l.2,2.6h6.2l-.4,3.5-2.9.8-3-.8-.2-2.1H4.7L5,17.6l5.5,1.7,5.4-1.5L17.1,4.4Z" style="fill: #fff"/>
  </g>
</svg>
