<svg xmlns="http://www.w3.org/2000/svg" viewBox="0 0 77.31 24" height='25px'>
  <title>Ресурс 7</title>
  <g>
    <path d="M12.3,9H7.7V0h4.6a4.48,4.48,0,0,1,4.5,4.5A4.61,4.61,0,0,1,12.3,9ZM9.1,7.6h3.1a3,3,0,0,0,3-3,3.08,3.08,0,0,0-3-3H9.1ZM9.1,9H4.5a4.5,4.5,0,0,1,0-9H9.1V9ZM4.5,1.5a3,3,0,0,0-3,3,3.08,3.08,0,0,0,3,3H7.6v-6Zm4.6,15H4.5a4.5,4.5,0,0,1,0-9H9.1v9ZM4.5,9a3,3,0,0,0-3,3,3.08,3.08,0,0,0,3,3H7.6V9Zm.1,15a4.5,4.5,0,0,1,0-9H9.2v4.4A4.65,4.65,0,0,1,4.6,24Zm-.1-7.5a3,3,0,0,0,0,6,3.12,3.12,0,0,0,3.1-3.1v-3H4.5Zm7.8,0h0a4.5,4.5,0,1,1-.1-9h.1A4.48,4.48,0,0,1,16.8,12,4.55,4.55,0,0,1,12.3,16.5ZM12.2,9a3,3,0,0,0-3,3,3.08,3.08,0,0,0,3,3h.1a3,3,0,0,0,3-3,3.1,3.1,0,0,0-3.1-3Z" style="fill: #fff"/>
    <g style="isolation: isolate">
      <path d="M23.55,8.67v2.75h5.13v2.74H23.55v4.28H20.26V5.94h9.12V8.67Z" style="fill: #fff"/>
      <path d="M30.92,5.94h3.29v12.5H30.92Z" style="fill: #fff"/>
      <path d="M44.34,11.92h2.91V17.1A7.42,7.42,0,0,1,45,18.28a8.69,8.69,0,0,1-2.59.41,6.56,6.56,0,0,1-3.29-.83,5.85,5.85,0,0,1-2.29-2.31A6.7,6.7,0,0,1,36,12.19a6.7,6.7,0,0,1,.83-3.36,5.94,5.94,0,0,1,2.3-2.31,6.75,6.75,0,0,1,3.34-.83,7,7,0,0,1,2.92.59A5.55,5.55,0,0,1,47.51,8l-2.09,2A3.57,3.57,0,0,0,42.6,8.62a3.14,3.14,0,0,0-2.41,1,3.65,3.65,0,0,0-.91,2.6A4.09,4.09,0,0,0,39.69,14a3.09,3.09,0,0,0,2.88,1.72,4,4,0,0,0,1.77-.41Z" style="fill: #fff"/>
      <path d="M59.84,18.44l0-6.62-3,5.39H55.35l-3-5.22v6.45h-3V5.94h2.71l4.08,7.22,4-7.22h2.7l0,12.5Z" style="fill: #fff"/>
      <path d="M73,16H68.06l-.92,2.43H63.79l5.13-12.5h3.24l5.15,12.5H73.89Zm-1-2.6-1.5-4-1.49,4Z" style="fill: #fff"/>
    </g>
  </g>
</svg>
