<svg xmlns="http://www.w3.org/2000/svg" viewBox="0 0 82.77 18.01">
  <title>Ресурс 13</title>
  <g>
    <g>
      <path d="M35.41,8.35h3.28v5.4A7.11,7.11,0,0,1,36.39,15a8.37,8.37,0,0,1-2.57.42,6.21,6.21,0,0,1-3.21-.85,5.9,5.9,0,0,1-2.22-2.37,7.27,7.27,0,0,1-.81-3.46,7.27,7.27,0,0,1,.81-3.46,5.84,5.84,0,0,1,2.25-2.37A6.36,6.36,0,0,1,33.9,2a6.65,6.65,0,0,1,2.94.63A5.55,5.55,0,0,1,39,4.49L36.6,6.91a3.1,3.1,0,0,0-2.51-1.4,2.45,2.45,0,0,0-2,.86,3.46,3.46,0,0,0-.73,2.33A3.56,3.56,0,0,0,32.1,11a2.41,2.41,0,0,0,1.94.87,3.09,3.09,0,0,0,1.37-.31Z" style="fill: #fff"/>
      <path d="M50.27,15.08l0-5.81-2.43,4.67H46.15L43.73,9.47v5.61H40.3V2.32h3.09L47,9.12l3.54-6.8h3.1l0,12.76Z" style="fill: #fff"/>
      <path d="M63.13,12.86H58.89l-.75,2.22H54.31L59.19,2.32h3.7l4.88,12.76H63.88Zm-1-3.1L61,6.55,59.92,9.76Z" style="fill: #fff"/>
      <path d="M68.38,2.32h3.77V15.08H68.38Z" style="fill: #fff"/>
      <path d="M74,2.32h3.76v9.43h5v3.33H74Z" style="fill: #fff"/>
    </g>
    <path d="M24,2.46V16.37A1.63,1.63,0,0,1,22.36,18H18.55V8.73L12,13.64,5.46,8.73V18H1.64A1.64,1.64,0,0,1,0,16.37H0V2.46A2.45,2.45,0,0,1,3.93.5L5.46,1.64,12,6.55l6.55-4.91L20.07.5A2.45,2.45,0,0,1,24,2.46Z" style="fill: #fff"/>
  </g>
</svg>
