<svg xmlns="http://www.w3.org/2000/svg" viewBox="0 0 75.47 24">
  <title>Ресурс 4</title>
  <g>
    <g style="isolation: isolate">
      <path d="M37.92,5.57v12.5H34.63V13.2H30.15v4.87H26.86V5.57h3.29v4.7h4.48V5.57Z" style="fill: #fff"/>
      <path d="M42.72,8.37H39.15V5.57H49.56v2.8H46v9.7H42.72Z" style="fill: #fff"/>
      <path d="M61.29,18.07l0-6.62-3,5.39H56.8l-3-5.22v6.45h-3V5.57H53.5l4.08,7.21,4-7.21h2.71l0,12.5Z" style="fill: #fff"/>
      <path d="M66.64,5.57h3.28v9.7h5.55v2.8H66.64Z" style="fill: #fff"/>
    </g>
    <path d="M0,0H21L19.1,21.6,10.5,24,1.9,21.6ZM7,9.8,6.8,7.1H16.9l.2-2.6H3.9l.7,8h9.1l-.3,3.4-2.9.8-3-.8-.2-2.1H4.7L5,18l5.4,1.4L15.8,18l.7-8.2Z" style="fill: #fff"/>
  </g>
</svg>
