<svg xmlns="http://www.w3.org/2000/svg" viewBox="0 0 146.91 23.8">
  <title>Ресурс 6</title>
  <g>
    <g style="isolation: isolate">
      <path d="M27.06,5.56h3.29v12.5H27.06Z" style="fill: #fff"/>
      <path d="M32.69,5.56H36v9.69h5.55v2.81H32.69Z" style="fill: #fff"/>
      <path d="M42.82,5.56h3.29v9.69h5.55v2.81H42.82Z" style="fill: #fff"/>
      <path d="M54.17,16.79a6,6,0,0,1-1.43-4.3V5.56H56v6.82c0,2,.73,3,2.2,3s2.2-1,2.2-3V5.56h3.23v6.93a6,6,0,0,1-1.43,4.3,5.29,5.29,0,0,1-4,1.52A5.29,5.29,0,0,1,54.17,16.79Z" style="fill: #fff"/>
      <path d="M67.23,17.93a6.56,6.56,0,0,1-2.16-1l1.08-2.61a7,7,0,0,0,1.81.9,6.7,6.7,0,0,0,2,.34q1.89,0,1.89-1a.85.85,0,0,0-.54-.8,9.49,9.49,0,0,0-1.73-.54,15.14,15.14,0,0,1-2.19-.65,3.67,3.67,0,0,1-1.51-1.12,3.11,3.11,0,0,1-.64-2.07,3.75,3.75,0,0,1,.59-2.06,3.93,3.93,0,0,1,1.73-1.46,6.81,6.81,0,0,1,2.83-.53,9.51,9.51,0,0,1,2.26.27,6.68,6.68,0,0,1,2,.82L73.63,9a6.43,6.43,0,0,0-3.22-1A2.53,2.53,0,0,0,69,8.37a1,1,0,0,0-.45.81.79.79,0,0,0,.53.75,8.73,8.73,0,0,0,1.71.52,14.93,14.93,0,0,1,2.2.65,3.71,3.71,0,0,1,1.51,1.11,3.08,3.08,0,0,1,.64,2.06,3.7,3.7,0,0,1-.58,2,4.07,4.07,0,0,1-1.74,1.45,6.55,6.55,0,0,1-2.83.55A10.07,10.07,0,0,1,67.23,17.93Z" style="fill: #fff"/>
      <path d="M78.94,8.36H75.37V5.56H85.78v2.8H82.23v9.7H78.94Z" style="fill: #fff"/>
      <path d="M92.09,14.74H90.3v3.32H87V5.56h5.32a6.18,6.18,0,0,1,2.74.56,4.12,4.12,0,0,1,1.79,1.61,4.63,4.63,0,0,1,.63,2.45,4.63,4.63,0,0,1-.59,2.37,4.07,4.07,0,0,1-1.68,1.58l2.5,3.93H94.2Zm1.56-5.92a2.15,2.15,0,0,0-1.52-.48H90.3V12h1.83a2.15,2.15,0,0,0,1.52-.47,1.71,1.71,0,0,0,.52-1.35A1.77,1.77,0,0,0,93.65,8.82Z" style="fill: #fff"/>
      <path d="M107.09,15.63h-4.92l-.91,2.43H97.91L103,5.56h3.24l5.14,12.5H108Zm-1-2.61-1.5-4-1.49,4Z" style="fill: #fff"/>
      <path d="M114.25,8.36h-3.57V5.56h10.41v2.8h-3.56v9.7h-3.28Z" style="fill: #fff"/>
      <path d="M124.7,17.47a6.06,6.06,0,0,1-2.31-2.32,6.66,6.66,0,0,1-.84-3.34,6.66,6.66,0,0,1,.84-3.34,6.06,6.06,0,0,1,2.31-2.32,7,7,0,0,1,6.63,0,6.06,6.06,0,0,1,2.31,2.32,6.75,6.75,0,0,1,.83,3.34,6.75,6.75,0,0,1-.83,3.34,6.06,6.06,0,0,1-2.31,2.32,7,7,0,0,1-6.63,0Zm4.91-2.54a3.09,3.09,0,0,0,1.13-1.26,4,4,0,0,0,.41-1.86,4,4,0,0,0-.41-1.87,3.22,3.22,0,0,0-1.13-1.26,3.11,3.11,0,0,0-3.19,0,3.15,3.15,0,0,0-1.13,1.26,4,4,0,0,0-.41,1.87,4,4,0,0,0,.41,1.86,3,3,0,0,0,1.13,1.26,3.05,3.05,0,0,0,3.19,0Z" style="fill: #fff"/>
      <path d="M141.28,14.74h-1.79v3.32H136.2V5.56h5.32a6.18,6.18,0,0,1,2.74.56,4.12,4.12,0,0,1,1.79,1.61,4.63,4.63,0,0,1,.63,2.45,4.63,4.63,0,0,1-.59,2.37,4.07,4.07,0,0,1-1.68,1.58l2.5,3.93h-3.52Zm1.56-5.92a2.15,2.15,0,0,0-1.52-.48h-1.83V12h1.83a2.15,2.15,0,0,0,1.52-.47,1.71,1.71,0,0,0,.52-1.35A1.77,1.77,0,0,0,142.84,8.82Z" style="fill: #fff"/>
    </g>
    <path d="M10.6,10.6l-.3-.9L10,8.8c-.1-.3-.1-.6-.2-.8h0c-.1.4-.2.9-.3,1.3A8.8,8.8,0,0,1,9,10.8c-.1.5-.3,1-.4,1.4h2.5c-.1-.2-.1-.5-.2-.7ZM19.8,0H4.3A4.33,4.33,0,0,0,0,4.3V19.5a4.27,4.27,0,0,0,4.3,4.3H19.8a4.27,4.27,0,0,0,4.3-4.3V4.3A4.27,4.27,0,0,0,19.8,0Zm-5,16.9H12.7c-.1,0-.1,0-.2-.1l-.8-2.4H8l-.8,2.4c0,.1-.1.2-.2.1H5.2c-.1,0-.1-.1-.1-.2L8.3,7.2c0-.1.1-.2.1-.3s.1-.4.1-.7c0-.1,0-.1.1-.1h2.6c.1,0,.1,0,.1.1L15,16.7C14.9,16.8,14.9,16.9,14.8,16.9Zm3.4-.2c0,.1,0,.2-.1.2h-2c-.1,0-.1-.1-.1-.2V8.8c0-.1,0-.1.1-.1h2a.1.1,0,0,1,.1.1ZM18,7.5a1.49,1.49,0,0,1-.9.4,1.22,1.22,0,0,1-.9-.4c-.2-.3-.4-.6-.3-.9a1.09,1.09,0,0,1,.4-.9,1.49,1.49,0,0,1,.9-.4,1,1,0,0,1,.9.4,1.4,1.4,0,0,1,.3.9A3.55,3.55,0,0,1,18,7.5Z" style="fill: #fff"/>
  </g>
</svg>
