<svg xmlns="http://www.w3.org/2000/svg" viewBox="0 0 151.42 27.48" height='25px'>
  <title>Ресурс 9</title>
  <g>
    <rect/>
    <text transform="translate(28.5 20.14) scale(0.93 1)" style="isolation: isolate;font-size: 17.85678482055664px;fill: #fff;font-family: Montserrat-ExtraBold, Montserrat;font-weight: 800">IL<tspan x="16.95" y="0" style="letter-spacing: -0.006968385630621848em">L</tspan><tspan x="27.71" y="0">U</tspan><tspan x="41.75" y="0" style="letter-spacing: -0.009996840145195899em">S</tspan><tspan x="53.12" y="0" style="letter-spacing: -0.00002940247101528206em">TR</tspan><tspan x="77.68" y="0" style="letter-spacing: -0.03498894050818565em">A</tspan><tspan x="91.09" y="0" style="letter-spacing: -0.009996840145195899em">T</tspan><tspan x="102.25" y="0">OR</tspan></text>
    <path d="M13.21,12.71c-.1-.31-.19-.62-.29-.94s-.19-.61-.27-.91l-.22-.8h0a12.8,12.8,0,0,1-.34,1.32c-.15.49-.3,1-.46,1.52s-.29,1-.44,1.43h2.54c-.06-.22-.14-.47-.23-.74S13.3,13,13.21,12.71ZM22.43,2H6.93A4.29,4.29,0,0,0,2.68,6.39V21.64A4.3,4.3,0,0,0,6.93,26h15.5a4.3,4.3,0,0,0,4.25-4.35V6.39A4.29,4.29,0,0,0,22.43,2ZM17.38,19H15.29a.16.16,0,0,1-.16-.12l-.82-2.43H10.59l-.76,2.4a.18.18,0,0,1-.19.15H7.76c-.11,0-.14-.07-.11-.19l3.22-9.48c0-.11.06-.22.1-.34A3.71,3.71,0,0,0,11,8.28a.1.1,0,0,1,.08-.11H13.7c.08,0,.12,0,.13.08l3.65,10.54C17.51,18.9,17.48,19,17.38,19Zm3.4-.16c0,.11,0,.17-.13.17h-2c-.1,0-.15-.07-.15-.17V10.92c0-.1,0-.14.13-.14h2c.09,0,.13.05.13.14Zm-.21-9.24a1.15,1.15,0,0,1-.91.36,1.21,1.21,0,0,1-.89-.36,1.33,1.33,0,0,1-.34-.94,1.21,1.21,0,0,1,.36-.91,1.25,1.25,0,0,1,.89-.36,1.17,1.17,0,0,1,.91.36,1.31,1.31,0,0,1,.33.91A1.3,1.3,0,0,1,20.57,9.56Z" style="fill: #fff"/>
  </g>
</svg>
