<svg xmlns="http://www.w3.org/2000/svg" viewBox="0 0 129.29 24">
  <title>Ресурс 12</title>
  <g>
    <g>
      <path d="M27.55,4.88h3.77V17.65H27.55Z" style="fill: #fff"/>
      <path d="M44.14,4.88V17.65H41.05l-4.25-5.8v5.8H33.13V4.88h3.1l4.24,5.8V4.88Z" style="fill: #fff"/>
      <path d="M47.42,17.59a7,7,0,0,1-2.16-1l1.21-3.14a7.39,7.39,0,0,0,1.79.85,6.26,6.26,0,0,0,1.9.32,2.56,2.56,0,0,0,1.12-.18.54.54,0,0,0,.33-.52.65.65,0,0,0-.44-.6,8.88,8.88,0,0,0-1.44-.44,13.59,13.59,0,0,1-2.15-.66,3.66,3.66,0,0,1-1.5-1.17,3.43,3.43,0,0,1-.64-2.2A4.14,4.14,0,0,1,46,6.7a4.06,4.06,0,0,1,1.76-1.55,6.61,6.61,0,0,1,2.85-.56,9.09,9.09,0,0,1,2.26.28,6.63,6.63,0,0,1,2,.83L53.72,8.82a6.29,6.29,0,0,0-3.11-1c-1,0-1.45.27-1.45.8a.62.62,0,0,0,.43.58A8.17,8.17,0,0,0,51,9.66a12.48,12.48,0,0,1,2.15.63,3.69,3.69,0,0,1,1.52,1.16,3.38,3.38,0,0,1,.65,2.19A4,4,0,0,1,53,17.37a6.49,6.49,0,0,1-2.85.57A10.66,10.66,0,0,1,47.42,17.59Z" style="fill: #fff"/>
      <path d="M58.71,8.22H55.44V4.88H65.75V8.22H62.48v9.43H58.71Z" style="fill: #fff"/>
      <path d="M73.78,15.42H69.53l-.75,2.23H65L69.84,4.88h3.7l4.88,12.77H74.53Zm-1-3.1L71.65,9.11l-1.08,3.21Z" style="fill: #fff"/>
      <path d="M86.26,10.92h3.27v5.4a7.29,7.29,0,0,1-2.3,1.2,8.37,8.37,0,0,1-2.57.42,6.11,6.11,0,0,1-3.21-.85,5.84,5.84,0,0,1-2.22-2.37,7.24,7.24,0,0,1-.81-3.46,7.23,7.23,0,0,1,.81-3.45,5.72,5.72,0,0,1,2.25-2.37,6.27,6.27,0,0,1,3.26-.85,6.65,6.65,0,0,1,2.94.63,5.71,5.71,0,0,1,2.17,1.83L87.44,9.48a3.09,3.09,0,0,0-2.51-1.41,2.48,2.48,0,0,0-2,.86,3.46,3.46,0,0,0-.73,2.33,3.54,3.54,0,0,0,.72,2.32,2.41,2.41,0,0,0,1.94.88,3.31,3.31,0,0,0,1.38-.31Z" style="fill: #fff"/>
      <path d="M95.92,14.44h-1v3.21H91.14V4.88h5.37a5.84,5.84,0,0,1,2.7.58A4.11,4.11,0,0,1,101,7.14a5,5,0,0,1,.62,2.56,5.07,5.07,0,0,1-.54,2.39,4,4,0,0,1-1.56,1.62l2.34,3.94h-4Zm1.5-5.85a1.51,1.51,0,0,0-1.14-.39H94.9v3h1.38a1.51,1.51,0,0,0,1.14-.39,1.49,1.49,0,0,0,.39-1.1A1.5,1.5,0,0,0,97.42,8.59Z" style="fill: #fff"/>
      <path d="M110.64,15.42h-4.25l-.75,2.23h-3.83L106.7,4.88h3.7l4.88,12.77h-3.89Zm-1-3.1-1.09-3.21-1.08,3.21Z" style="fill: #fff"/>
      <path d="M125.86,17.65l0-5.82L123.4,16.5h-1.66L119.32,12v5.62h-3.43V4.88H119l3.64,6.8,3.54-6.8h3.1l0,12.77Z" style="fill: #fff"/>
    </g>
    <path d="M12,0C8.74,0,8.33,0,7.05.07A8.82,8.82,0,0,0,4.14.63,6.07,6.07,0,0,0,.63,4.14,8.82,8.82,0,0,0,.07,7.05C0,8.33,0,8.74,0,12S0,15.67.07,17a8.76,8.76,0,0,0,.56,2.91A6,6,0,0,0,2,22a5.91,5.91,0,0,0,2.13,1.38,8.82,8.82,0,0,0,2.91.56C8.33,24,8.74,24,12,24s3.67,0,4.95-.07a8.76,8.76,0,0,0,2.91-.56A6,6,0,0,0,22,22a5.91,5.91,0,0,0,1.38-2.13A8.82,8.82,0,0,0,23.93,17C24,15.67,24,15.26,24,12s0-3.67-.07-4.95a8.76,8.76,0,0,0-.56-2.91A6.07,6.07,0,0,0,19.86.63,8.76,8.76,0,0,0,17,.07C15.67,0,15.26,0,12,0Zm0,2.16c3.2,0,3.59,0,4.85.07a6.61,6.61,0,0,1,2.23.42,3.61,3.61,0,0,1,1.38.89,3.61,3.61,0,0,1,.89,1.38,6.42,6.42,0,0,1,.42,2.23c.05,1.27.07,1.65.07,4.85s0,3.59-.08,4.85a6.61,6.61,0,0,1-.42,2.23,3.75,3.75,0,0,1-.9,1.38,3.61,3.61,0,0,1-1.38.89,6.37,6.37,0,0,1-2.23.42c-1.27.05-1.65.07-4.86.07s-3.59,0-4.86-.08a6.61,6.61,0,0,1-2.23-.42,3.6,3.6,0,0,1-1.38-.9,3.63,3.63,0,0,1-.9-1.38,6.61,6.61,0,0,1-.42-2.23c-.05-1.26-.06-1.65-.06-4.84s0-3.59.06-4.87A6.61,6.61,0,0,1,2.6,4.89a3.56,3.56,0,0,1,.9-1.38,3.56,3.56,0,0,1,1.38-.9A6.8,6.8,0,0,1,7.1,2.19c1.27,0,1.65-.06,4.85-.06Zm0,3.68A6.16,6.16,0,1,0,18.16,12,6.16,6.16,0,0,0,12,5.84ZM12,16a4,4,0,1,1,4-4A4,4,0,0,1,12,16ZM19.85,5.6a1.44,1.44,0,1,1-1.44-1.44A1.45,1.45,0,0,1,19.85,5.6Z" style="fill: #fff"/>
  </g>
</svg>
