<svg xmlns="http://www.w3.org/2000/svg" viewBox="0 0 84.31 24" height='25px'>
  <title>Ресурс 11</title>
  <g>
    <g>
      <path d="M0,6.3H3.77v9.43h5v3.34H0Z" style="fill: #fff"/>
      <path d="M10,7.69a2,2,0,0,1-.59-1.5A2.07,2.07,0,0,1,10,4.68a2.18,2.18,0,0,1,1.58-.59,2.19,2.19,0,0,1,1.58.57,1.93,1.93,0,0,1,.59,1.46,2.14,2.14,0,0,1-.59,1.55,2.1,2.1,0,0,1-1.58.62A2.14,2.14,0,0,1,10,7.69Zm-.23,1.4h3.61v10H9.73Z" style="fill: #fff"/>
      <path d="M23.59,10a4.91,4.91,0,0,1,1,3.35v5.7H21v-5c0-1.15-.36-1.72-1.07-1.72a1.16,1.16,0,0,0-1,.49,2.48,2.48,0,0,0-.38,1.52v4.69h-3.6v-10h3.43v1a3.21,3.21,0,0,1,1.18-.87A3.48,3.48,0,0,1,21,8.91,3.29,3.29,0,0,1,23.59,10Z" style="fill: #fff"/>
      <path d="M30.32,16l-.58.71v2.36h-3.6V5.53h3.6V12l2.51-2.9h4.26L32.9,13.41l3.9,5.66H32.44Z" style="fill: #fff"/>
      <path d="M46.35,15H40.29a1.65,1.65,0,0,0,.64.86,2,2,0,0,0,1.12.3A2.47,2.47,0,0,0,43,16a3.15,3.15,0,0,0,.85-.57l1.89,2.17a4.58,4.58,0,0,1-3.82,1.61,5.54,5.54,0,0,1-2.77-.67,4.58,4.58,0,0,1-1.85-1.85,5.38,5.38,0,0,1-.66-2.66,5.44,5.44,0,0,1,.65-2.67,4.68,4.68,0,0,1,1.77-1.84,4.89,4.89,0,0,1,2.53-.65,5,5,0,0,1,2.42.6,4.49,4.49,0,0,1,1.74,1.77,5.69,5.69,0,0,1,.64,2.79C46.4,14.13,46.38,14.45,46.35,15Zm-5.64-3a1.66,1.66,0,0,0-.48,1H43a1.82,1.82,0,0,0-.48-1,1.38,1.38,0,0,0-1.85,0Z" style="fill: #fff"/>
      <path d="M57.19,5.53V19.07H53.76v-.82a2.87,2.87,0,0,1-2.39,1,3.79,3.79,0,0,1-2.12-.63,4.39,4.39,0,0,1-1.53-1.82,6.23,6.23,0,0,1-.57-2.73,6.23,6.23,0,0,1,.57-2.73,4.39,4.39,0,0,1,1.53-1.8,3.79,3.79,0,0,1,2.12-.63,2.81,2.81,0,0,1,2.21.85V5.53Zm-3.94,10a2.38,2.38,0,0,0,.4-1.45,2.33,2.33,0,0,0-.4-1.44,1.25,1.25,0,0,0-1-.51,1.22,1.22,0,0,0-1,.51,2.26,2.26,0,0,0-.4,1.44,2.31,2.31,0,0,0,.4,1.45,1.21,1.21,0,0,0,1,.52A1.23,1.23,0,0,0,53.25,15.52Z" style="fill: #fff"/>
    </g>
    <path d="M80.76,20.45H77.21V14.88c0-1.33,0-3-1.86-3s-2.13,1.44-2.13,2.93v5.67H69.66V9h3.42v1.56h0a3.75,3.75,0,0,1,3.37-1.85c3.6,0,4.27,2.37,4.27,5.46v6.28Zm-15.11-13a2.06,2.06,0,1,1,2.06-2.06A2.06,2.06,0,0,1,65.65,7.43Zm1.78,13H63.87V9h3.56ZM82.54,0H62.08a1.75,1.75,0,0,0-1.77,1.73V22.27A1.75,1.75,0,0,0,62.08,24H82.53a1.75,1.75,0,0,0,1.78-1.73V1.73A1.75,1.75,0,0,0,82.53,0Z" style="fill: #fff"/>
  </g>
</svg>
