<svg xmlns="http://www.w3.org/2000/svg" viewBox="0 0 139.49 23.5">
  <title>Ресурс 5</title>
  <g>
    <g style="isolation: isolate">
      <path d="M35.12,6.18a4.16,4.16,0,0,1,1.79,1.6,4.69,4.69,0,0,1,.63,2.46,4.65,4.65,0,0,1-.63,2.45,4.14,4.14,0,0,1-1.79,1.59,6.18,6.18,0,0,1-2.74.57h-2v3.26H27.06V5.61h5.32A6.18,6.18,0,0,1,35.12,6.18Zm-1.41,5.41a1.76,1.76,0,0,0,.51-1.35,1.79,1.79,0,0,0-.51-1.36,2.19,2.19,0,0,0-1.53-.48H30.35v3.66h1.83A2.24,2.24,0,0,0,33.71,11.59Z" style="fill: #fff"/>
      <path d="M50.2,5.61v12.5H46.91V13.24H42.42v4.87H39.14V5.61h3.28v4.7h4.49V5.61Z" style="fill: #fff"/>
      <path d="M55.07,17.52a6,6,0,0,1-2.31-2.32,6.63,6.63,0,0,1-.84-3.34,6.62,6.62,0,0,1,.84-3.33A6.08,6.08,0,0,1,55.07,6.2a7,7,0,0,1,6.63,0A6.06,6.06,0,0,1,64,8.53a6.62,6.62,0,0,1,.84,3.33A6.63,6.63,0,0,1,64,15.2a6,6,0,0,1-2.3,2.32,7,7,0,0,1-6.63,0ZM60,15a3.22,3.22,0,0,0,1.13-1.26,4.12,4.12,0,0,0,.41-1.87A4.11,4.11,0,0,0,61.11,10,3.22,3.22,0,0,0,60,8.74a3.05,3.05,0,0,0-3.19,0A3.15,3.15,0,0,0,55.66,10a4,4,0,0,0-.42,1.86,4,4,0,0,0,.42,1.87A3.15,3.15,0,0,0,56.79,15,3.05,3.05,0,0,0,60,15Z" style="fill: #fff"/>
      <path d="M68.88,8.42H65.31V5.61H75.72V8.42H72.17v9.69H68.88Z" style="fill: #fff"/>
      <path d="M79.33,17.52A6,6,0,0,1,77,15.2a6.62,6.62,0,0,1-.83-3.34A6.61,6.61,0,0,1,77,8.53,6.08,6.08,0,0,1,79.33,6.2,7,7,0,0,1,86,6.2a6.08,6.08,0,0,1,2.31,2.33,6.62,6.62,0,0,1,.84,3.33,6.63,6.63,0,0,1-.84,3.34A6,6,0,0,1,86,17.52a7,7,0,0,1-6.63,0ZM84.24,15a3.15,3.15,0,0,0,1.13-1.26,4,4,0,0,0,.41-1.87A4,4,0,0,0,85.37,10a3.15,3.15,0,0,0-1.13-1.26,3.05,3.05,0,0,0-3.19,0A3.15,3.15,0,0,0,79.92,10a4.11,4.11,0,0,0-.41,1.86,4.12,4.12,0,0,0,.41,1.87A3.15,3.15,0,0,0,81.05,15a3.05,3.05,0,0,0,3.19,0Z" style="fill: #fff"/>
      <path d="M92.18,18A6.38,6.38,0,0,1,90,17l1.08-2.61a6.5,6.5,0,0,0,1.81.89,6.34,6.34,0,0,0,2,.34c1.27,0,1.9-.34,1.9-1a.84.84,0,0,0-.54-.8,9.66,9.66,0,0,0-1.74-.54,17.49,17.49,0,0,1-2.19-.65,3.76,3.76,0,0,1-1.51-1.12,3.16,3.16,0,0,1-.63-2.07,3.75,3.75,0,0,1,.58-2.06A4,4,0,0,1,92.53,5.9a6.69,6.69,0,0,1,2.84-.54,9.5,9.5,0,0,1,2.25.28,6.83,6.83,0,0,1,2,.81l-1,2.63a6.45,6.45,0,0,0-3.22-1,2.54,2.54,0,0,0-1.43.32,1,1,0,0,0-.45.81A.81.81,0,0,0,94,10a9.2,9.2,0,0,0,1.71.52,15.49,15.49,0,0,1,2.21.65,3.78,3.78,0,0,1,1.51,1.11,3.11,3.11,0,0,1,.64,2.06,3.66,3.66,0,0,1-.59,2,3.91,3.91,0,0,1-1.74,1.46,6.63,6.63,0,0,1-2.82.54A10,10,0,0,1,92.18,18Z" style="fill: #fff"/>
      <path d="M112.64,5.61v12.5h-3.29V13.24h-4.49v4.87h-3.28V5.61h3.28v4.7h4.49V5.61Z" style="fill: #fff"/>
      <path d="M117.51,17.52a6,6,0,0,1-2.31-2.32,6.63,6.63,0,0,1-.84-3.34,6.62,6.62,0,0,1,.84-3.33,6.08,6.08,0,0,1,2.31-2.33,7,7,0,0,1,6.63,0,6,6,0,0,1,2.3,2.33,6.62,6.62,0,0,1,.84,3.33,6.63,6.63,0,0,1-.84,3.34,5.9,5.9,0,0,1-2.3,2.32,7,7,0,0,1-6.63,0ZM122.42,15a3.22,3.22,0,0,0,1.13-1.26,4.12,4.12,0,0,0,.41-1.87,4.11,4.11,0,0,0-.41-1.86,3.22,3.22,0,0,0-1.13-1.26,3.05,3.05,0,0,0-3.19,0A3.15,3.15,0,0,0,118.1,10a4,4,0,0,0-.41,1.86,4,4,0,0,0,.41,1.87A3.15,3.15,0,0,0,119.23,15a3.05,3.05,0,0,0,3.19,0Z" style="fill: #fff"/>
      <path d="M137.07,6.18a4.16,4.16,0,0,1,1.79,1.6,4.69,4.69,0,0,1,.63,2.46,4.65,4.65,0,0,1-.63,2.45,4.14,4.14,0,0,1-1.79,1.59,6.18,6.18,0,0,1-2.74.57h-2v3.26H129V5.61h5.32A6.18,6.18,0,0,1,137.07,6.18Zm-1.42,5.41a1.73,1.73,0,0,0,.52-1.35,1.76,1.76,0,0,0-.52-1.36,2.15,2.15,0,0,0-1.52-.48H132.3v3.66h1.83A2.2,2.2,0,0,0,135.65,11.59Z" style="fill: #fff"/>
    </g>
    <path d="M9.9,8.1a5,5,0,0,0-1.2-.2H7.6v3.4h.9a3.59,3.59,0,0,0,1.1-.2,2.18,2.18,0,0,0,.8-.5,1.69,1.69,0,0,0,.3-1,2.92,2.92,0,0,0-.2-.9C10.5,8.4,10.2,8.2,9.9,8.1ZM19.8,0H4.3A4.33,4.33,0,0,0,0,4.3V19.2a4.33,4.33,0,0,0,4.3,4.3H19.8a4.27,4.27,0,0,0,4.3-4.3V4.3A4.27,4.27,0,0,0,19.8,0ZM12.4,11.7a3.11,3.11,0,0,1-1.6,1.2,5.59,5.59,0,0,1-2.3.3H7.6v3.2c0,.1,0,.1-.1.1H5.6c-.1,0-.1,0-.1-.1V6.1c0-.1,0-.1.1-.1H8.8a6.65,6.65,0,0,1,2.1.3,2.87,2.87,0,0,1,1.3.8,2.59,2.59,0,0,1,.7,1.1,5.07,5.07,0,0,1,.2,1.3A4.77,4.77,0,0,1,12.4,11.7Zm7.1,3.9a3.13,3.13,0,0,1-1.1.9,4.84,4.84,0,0,1-1.8.3,6.6,6.6,0,0,1-1.4-.1c-.4-.1-.7-.2-1-.3-.1,0-.1-.1-.1-.2V14.4h.1a6.12,6.12,0,0,0,1.2.5,5,5,0,0,0,1.2.2c.4,0,.6-.1.8-.1s.3-.2.3-.4a.76.76,0,0,0-.2-.4,8.92,8.92,0,0,0-1-.5,6.11,6.11,0,0,1-1.4-.7,2.36,2.36,0,0,1-.8-.9,1.8,1.8,0,0,1-.2-1,2.66,2.66,0,0,1,.3-1.2,2.84,2.84,0,0,1,1-.9,4.84,4.84,0,0,1,1.8-.3,4.87,4.87,0,0,1,1.2.1,2.92,2.92,0,0,1,.9.2l.1.1v1.8h-.2a1.69,1.69,0,0,0-1-.3,4.1,4.1,0,0,0-1.1-.1,1.27,1.27,0,0,0-.6.1c-.1,0-.2.1-.3.2s-.1.2-.1.3a.37.37,0,0,0,.1.3l.3.3c.2.1.5.2.7.3a6.89,6.89,0,0,1,1.5.7,3,3,0,0,1,.8.8,1.8,1.8,0,0,1,.2,1C19.9,14.7,19.8,15.2,19.5,15.6Z" style="fill: #fff"/>
  </g>
</svg>
