<svg xmlns="http://www.w3.org/2000/svg" viewBox="0 0 144.26 27.48" height='25px'>
  <title>Ресурс 8</title>
  <g>
    <rect/>
    <text transform="translate(28.5 20.14) scale(0.93 1)" style="isolation: isolate;font-size: 17.85678482055664px;fill: #fff;font-family: Montserrat-ExtraBold, Montserrat;font-weight: 800"><tspan style="letter-spacing: -0.009996840145195899em">P</tspan><tspan x="12.98" y="0">H</tspan><tspan x="27.37" y="0" style="letter-spacing: -0.009996840145195899em">OT</tspan><tspan x="53.46" y="0">OSHOP</tspan></text>
    <path d="M12.53,10.16a2.93,2.93,0,0,0-1.18-.2h-.68a2.29,2.29,0,0,0-.41,0v3.36l.39,0h.53a3.74,3.74,0,0,0,1.15-.18,1.72,1.72,0,0,0,.82-.53,1.55,1.55,0,0,0,.31-1,1.65,1.65,0,0,0-.23-.89A1.45,1.45,0,0,0,12.53,10.16ZM22.43,2H6.93A4.25,4.25,0,0,0,2.68,6.29v14.9a4.25,4.25,0,0,0,4.25,4.25h15.5a4.25,4.25,0,0,0,4.25-4.25V6.29A4.25,4.25,0,0,0,22.43,2ZM15,13.69a3.43,3.43,0,0,1-1.61,1.22,6.48,6.48,0,0,1-2.25.34h-.93v3.21a.12.12,0,0,1-.11.14H8.2c-.08,0-.12,0-.12-.13V8.16c0-.07,0-.11.1-.11h.56L9.5,8l.87,0h.91a5.88,5.88,0,0,1,2.06.31,3.57,3.57,0,0,1,1.34.82,3.18,3.18,0,0,1,.73,1.14,3.83,3.83,0,0,1,.23,1.3A3.58,3.58,0,0,1,15,13.69Zm7.09,3.89a2.51,2.51,0,0,1-1.12.89,4.58,4.58,0,0,1-1.81.32,6.89,6.89,0,0,1-1.36-.13,4,4,0,0,1-1-.32.2.2,0,0,1-.11-.19V16.41a.11.11,0,0,1,0-.09.08.08,0,0,1,.09,0,4.28,4.28,0,0,0,1.24.49,4.66,4.66,0,0,0,1.18.15,1.91,1.91,0,0,0,.83-.14.46.46,0,0,0,.27-.42.53.53,0,0,0-.24-.4,4.24,4.24,0,0,0-1-.47,6.32,6.32,0,0,1-1.42-.72A2.71,2.71,0,0,1,17,14a2.15,2.15,0,0,1-.23-1,2.27,2.27,0,0,1,.35-1.21,2.44,2.44,0,0,1,1-.92,3.88,3.88,0,0,1,1.77-.35,8.62,8.62,0,0,1,1.24.09,3.52,3.52,0,0,1,.86.23.18.18,0,0,1,.1.09.5.5,0,0,1,0,.12v1.63a.12.12,0,0,1-.05.1.27.27,0,0,1-.18,0,3.54,3.54,0,0,0-1-.34,5.27,5.27,0,0,0-1.12-.13,2,2,0,0,0-.6.07.51.51,0,0,0-.31.2.53.53,0,0,0-.08.27.44.44,0,0,0,.1.26,1.13,1.13,0,0,0,.34.27c.23.12.47.23.71.33a7.24,7.24,0,0,1,1.54.73,2.33,2.33,0,0,1,.79.83,2.16,2.16,0,0,1,.23,1A2.33,2.33,0,0,1,22.13,17.58Z" style="fill: #fff"/>
  </g>
</svg>
