<svg xmlns="http://www.w3.org/2000/svg" viewBox="0 0 90.2 27.5">
  <title>Ресурс 1</title>
  <g>
    <rect width="90.2" height="27.5"/>
    <path d="M17.1,13.8a2.4,2.4,0,0,1-4.8,0h0a2.4,2.4,0,0,1,4.8,0Zm2.8-12c-1.4,0-3.3,1.1-5.2,2.9C12.8,2.9,11,1.8,9.5,1.8a2.66,2.66,0,0,0-1.2.3c-1.4.9-1.7,3.7-1,7.2C4.1,10.3,2,12,2,13.8s2.1,3.5,5.3,4.5c-.7,3.5-.4,6.3,1.1,7.2a2.66,2.66,0,0,0,1.2.3c1.4,0,3.3-1.1,5.2-3,1.9,1.9,3.8,2.9,5.2,2.9a2.66,2.66,0,0,0,1.2-.3c1.5-.9,1.8-3.7,1-7.1,3.2-1,5.3-2.7,5.3-4.5s-2.1-3.5-5.3-4.5c.8-3.5.4-6.3-1-7.2a3.45,3.45,0,0,0-1.3-.3Zm0,1.2h0a1.27,1.27,0,0,1,.6.1c.7.4,1,2.1.8,4.2-.1.6-.2,1.1-.3,1.7a19.09,19.09,0,0,0-3.3-.6c-.7-1-1.4-1.9-2.1-2.8C17.2,4,18.8,3,19.9,3ZM9.5,3c1.1,0,2.7.9,4.4,2.6a24.72,24.72,0,0,0-2.1,2.7A34,34,0,0,0,8.4,9a10,10,0,0,1-.2-1.6c-.3-2.1,0-3.7.7-4.2A1.42,1.42,0,0,0,9.5,3Zm5.2,3.5a21,21,0,0,1,1.4,1.7H13.3A11.51,11.51,0,0,1,14.7,6.5Zm0,2.9a17,17,0,0,1,2.3.1c.4.6.9,1.4,1.3,2.1a15.05,15.05,0,0,1,1.1,2.2A22.56,22.56,0,0,1,18.3,16,14.79,14.79,0,0,1,17,18.1a18.48,18.48,0,0,1-2.3.1,17.7,17.7,0,0,1-2.3-.1c-.4-.7-.9-1.4-1.3-2.1A15.05,15.05,0,0,1,10,13.8a22.56,22.56,0,0,1,1.1-2.2,23.92,23.92,0,0,1,1.3-2.1c.7,0,1.5-.1,2.3-.1Zm-3.8.3a8.26,8.26,0,0,0-.7,1.3c-.2.4-.5.9-.7,1.3a18.66,18.66,0,0,1-.7-2.2C9.4,10,10.1,9.8,10.9,9.7Zm7.6,0c.7.1,1.5.3,2.1.4-.2.7-.4,1.4-.7,2.2a8.26,8.26,0,0,0-.7-1.3C18.9,10.6,18.8,10.1,18.5,9.7Zm3.3.8a9.38,9.38,0,0,1,1.5.6c1.8.8,3,1.9,3,2.8s-1.2,1.9-3,2.8a7.84,7.84,0,0,1-1.4.5,23,23,0,0,0-1.2-3.4C21.1,12.7,21.5,11.6,21.8,10.5Zm-14.2,0a18.54,18.54,0,0,0,1.2,3.3C8.3,14.9,8,16,7.6,17.1l-1.5-.6c-1.8-.8-3-1.9-3-2.8s1.2-2,3-2.8c.5-.1,1-.3,1.5-.4ZM20,15.3a18.66,18.66,0,0,1,.7,2.2,15.52,15.52,0,0,1-2.1.4c.3-.4.5-.9.8-1.3A7.54,7.54,0,0,0,20,15.3Zm-10.5,0a8.26,8.26,0,0,0,.7,1.3c.3.4.5.9.8,1.3a15.52,15.52,0,0,1-2.1-.4A7.94,7.94,0,0,1,9.5,15.3ZM21,18.7c.1.5.2,1.1.3,1.6.3,2.1,0,3.7-.8,4.2a.66.66,0,0,1-.6.1c-1.1,0-2.7-.9-4.4-2.6a24.72,24.72,0,0,0,2.1-2.7c1.2-.2,2.3-.4,3.4-.6Zm-12.5,0a19.09,19.09,0,0,0,3.3.6c.7,1,1.4,1.9,2.1,2.8-1.7,1.7-3.3,2.6-4.4,2.6a4.33,4.33,0,0,1-.5-.1c-.7-.4-1-2.1-.8-4.2.1-.7.2-1.2.3-1.7Zm4.8.7h2.8a22,22,0,0,1-1.4,1.8c-.5-.6-.9-1.2-1.4-1.8Z" style="fill: #fff"/>
    <text transform="translate(28.5 20.14) scale(0.93 1)" style="isolation: isolate;font-size: 17.856800079345703px;fill: #fff;font-family: Montserrat-ExtraBold, Montserrat;font-weight: 800">RE</text>
    <text transform="translate(52.05 20.14) scale(0.93 1)" style="isolation: isolate;font-size: 17.856800079345703px;fill: #fff;font-family: Montserrat-ExtraBold, Montserrat;font-weight: 800">A</text>
    <text transform="translate(65.26 20.14) scale(0.93 1)" style="isolation: isolate;font-size: 17.856800079345703px;fill: #fff;font-family: Montserrat-ExtraBold, Montserrat;font-weight: 800">C</text>
    <text transform="translate(77.54 20.14) scale(0.93 1)" style="isolation: isolate;font-size: 17.856800079345703px;fill: #fff;font-family: Montserrat-ExtraBold, Montserrat;font-weight: 800">T</text>
  </g>
</svg>
