<svg xmlns="http://www.w3.org/2000/svg" viewBox="0 0 86.02 24">
  <title>Ресурс 8</title>
  <g>
    <path d="M15.1,12a2.4,2.4,0,0,1-4.8,0h0a2.4,2.4,0,0,1,4.8,0ZM17.9,0c-1.4,0-3.3,1.1-5.2,2.9C10.8,1.1,9,0,7.5,0A2.66,2.66,0,0,0,6.3.3c-1.4.9-1.7,3.7-1,7.2C2.1,8.5,0,10.2,0,12s2.1,3.5,5.3,4.5c-.7,3.5-.4,6.3,1.1,7.2a2.66,2.66,0,0,0,1.2.3c1.4,0,3.3-1.1,5.2-3,1.9,1.9,3.8,2.9,5.2,2.9a2.66,2.66,0,0,0,1.2-.3c1.5-.9,1.8-3.7,1-7.1,3.2-1,5.3-2.7,5.3-4.5s-2.1-3.5-5.3-4.5c.8-3.5.4-6.3-1-7.2A3.45,3.45,0,0,0,17.9,0Zm0,1.2h0a1.27,1.27,0,0,1,.6.1c.7.4,1,2.1.8,4.2-.1.6-.2,1.1-.3,1.7a19.09,19.09,0,0,0-3.3-.6c-.7-1-1.4-1.9-2.1-2.8,1.6-1.6,3.2-2.6,4.3-2.6ZM7.5,1.2c1.1,0,2.7.9,4.4,2.6A24.72,24.72,0,0,0,9.8,6.5a34,34,0,0,0-3.4.7,10,10,0,0,1-.2-1.6c-.3-2.1,0-3.7.7-4.2a1.42,1.42,0,0,0,.6-.2Zm5.2,3.5a21,21,0,0,1,1.4,1.7H11.3A11.51,11.51,0,0,1,12.7,4.7Zm0,2.9a17,17,0,0,1,2.3.1c.4.6.9,1.4,1.3,2.1A15.05,15.05,0,0,1,17.4,12a22.56,22.56,0,0,1-1.1,2.2A14.79,14.79,0,0,1,15,16.3a18.48,18.48,0,0,1-2.3.1,17.7,17.7,0,0,1-2.3-.1c-.4-.7-.9-1.4-1.3-2.1A15.05,15.05,0,0,1,8,12,22.56,22.56,0,0,1,9.1,9.8a23.92,23.92,0,0,1,1.3-2.1c.7,0,1.5-.1,2.3-.1Zm-3.8.3a8.26,8.26,0,0,0-.7,1.3c-.2.4-.5.9-.7,1.3a18.66,18.66,0,0,1-.7-2.2C7.4,8.2,8.1,8,8.9,7.9Zm7.6,0c.7.1,1.5.3,2.1.4-.2.7-.4,1.4-.7,2.2a8.26,8.26,0,0,0-.7-1.3C16.9,8.8,16.8,8.3,16.5,7.9Zm3.3.8a9.38,9.38,0,0,1,1.5.6c1.8.8,3,1.9,3,2.8s-1.2,1.9-3,2.8a7.84,7.84,0,0,1-1.4.5A23,23,0,0,0,18.7,12C19.1,10.9,19.5,9.8,19.8,8.7ZM5.6,8.7A18.54,18.54,0,0,0,6.8,12c-.5,1.1-.8,2.2-1.2,3.3l-1.5-.6c-1.8-.8-3-1.9-3-2.8s1.2-2,3-2.8c.5-.1,1-.3,1.5-.4ZM18,13.5a18.66,18.66,0,0,1,.7,2.2,15.52,15.52,0,0,1-2.1.4c.3-.4.5-.9.8-1.3A7.54,7.54,0,0,0,18,13.5Zm-10.5,0a8.26,8.26,0,0,0,.7,1.3c.3.4.5.9.8,1.3a15.52,15.52,0,0,1-2.1-.4A7.94,7.94,0,0,1,7.5,13.5ZM19,16.9c.1.5.2,1.1.3,1.6.3,2.1,0,3.7-.8,4.2a.66.66,0,0,1-.6.1c-1.1,0-2.7-.9-4.4-2.6a24.72,24.72,0,0,0,2.1-2.7c1.2-.2,2.3-.4,3.4-.6Zm-12.5,0a19.09,19.09,0,0,0,3.3.6c.7,1,1.4,1.9,2.1,2.8-1.7,1.7-3.3,2.6-4.4,2.6a4.33,4.33,0,0,1-.5-.1c-.7-.4-1-2.1-.8-4.2.1-.7.2-1.2.3-1.7Zm4.8.7h2.8a22,22,0,0,1-1.4,1.8c-.5-.6-.9-1.2-1.4-1.8Z" style="fill: #fff"/>
    <g style="isolation: isolate">
      <path d="M32.74,15H31v3.32H27.66V5.84H33a6.32,6.32,0,0,1,2.74.56A4.18,4.18,0,0,1,37.51,8a4.69,4.69,0,0,1,.63,2.46,4.62,4.62,0,0,1-.59,2.36,4.07,4.07,0,0,1-1.68,1.58l2.5,3.93H34.85Zm1.57-5.91a2.19,2.19,0,0,0-1.53-.48H31v3.66h1.83a2.19,2.19,0,0,0,1.53-.48,1.73,1.73,0,0,0,.51-1.34A1.77,1.77,0,0,0,34.31,9.11Z" style="fill: #fff"/>
      <path d="M49.29,15.61v2.73H40V5.84h9.12V8.57H43.21v2.11h5.16v2.64H43.21v2.29Z" style="fill: #fff"/>
    </g>
    <g style="isolation: isolate">
      <path d="M59,15.91H54.08l-.91,2.43H49.82L55,5.84h3.24l5.14,12.5H59.91ZM58,13.3l-1.5-4-1.49,4Z" style="fill: #fff"/>
    </g>
    <g style="isolation: isolate">
      <path d="M66.94,17.76a5.89,5.89,0,0,1-2.28-2.31,6.7,6.7,0,0,1-.83-3.36,6.7,6.7,0,0,1,.83-3.36,6,6,0,0,1,2.28-2.31,7,7,0,0,1,6.15-.22A5.57,5.57,0,0,1,75.22,8l-2.09,2a3.39,3.39,0,0,0-2.74-1.46A3.19,3.19,0,0,0,68.7,9a2.94,2.94,0,0,0-1.14,1.25,4.05,4.05,0,0,0-.41,1.87A4.05,4.05,0,0,0,67.56,14a3,3,0,0,0,1.14,1.26,3.27,3.27,0,0,0,1.69.44,3.39,3.39,0,0,0,2.74-1.46l2.09,2A5.57,5.57,0,0,1,73.09,18a7,7,0,0,1-6.15-.22Z" style="fill: #fff"/>
    </g>
    <g style="isolation: isolate">
      <path d="M79.18,8.64H75.61V5.84H86v2.8H82.46v9.7H79.18Z" style="fill: #fff"/>
    </g>
  </g>
</svg>
