<svg xmlns="http://www.w3.org/2000/svg" viewBox="0 0 75.16 27.48" height='20px'>
  <title>Ресурс 5</title>
  <g>
    <rect width="75.16" height="27.48"/>
    <path d="M14.72,1.74a12,12,0,1,1-12,12A12,12,0,0,1,14.72,1.74Zm-2.38,16a3.1,3.1,0,0,1,0,1.79l-.07.18a1.42,1.42,0,0,1-.08.18,3.31,3.31,0,0,1-.55.81c-.7.76-1.67,1-2.09.8s-.23-1.33.58-2.19a8.11,8.11,0,0,1,2.12-1.51h0ZM22.25,6.88C21.71,4.74,18.17,4,14.83,5.23A16.84,16.84,0,0,0,9.14,8.5c-1.85,1.72-2.14,3.22-2,3.85.43,2.21,3.46,3.65,4.7,4.73h0c-.36.18-3.05,1.53-3.68,2.93s.1,2.52.61,2.65A3.79,3.79,0,0,0,12.82,21a4.14,4.14,0,0,0,.4-3.67,4.58,4.58,0,0,1,1.83-.11c2.1.24,2.52,1.56,2.43,2.1a1.46,1.46,0,0,1-.67,1c-.15.09-.2.12-.18.18s.09.09.21.07A1.68,1.68,0,0,0,18,19.06c0-1.29-1.19-2.73-3.38-2.7a5.31,5.31,0,0,0-1.87.26.29.29,0,0,0-.11-.11C11.27,15.06,8.77,14,8.87,12.1c0-.7.29-2.56,4.8-4.81,3.71-1.85,6.66-1.34,7.17-.21.74,1.6-1.57,4.59-5.43,5A2.89,2.89,0,0,1,13,11.49c-.21-.23-.24-.24-.31-.19s-.05.25,0,.37a2.33,2.33,0,0,0,1.39,1.1,7.48,7.48,0,0,0,4.5-.45c2.33-.9,4.14-3.41,3.62-5.51Z" style="fill: #fff"/>
    <text transform="translate(28.5 20.14) scale(0.93 1)" style="isolation: isolate;font-size: 17.85678482055664px;fill: #fff;font-family: Montserrat-ExtraBold, Montserrat;font-weight: 800;letter-spacing: -0.009026558601691591em">SASS</text>
  </g>
</svg>
