<svg xmlns="http://www.w3.org/2000/svg" viewBox="0 0 70.74 24">
  <title>Ресурс 2</title>
  <g>
    <path d="M12,0A12,12,0,1,1,0,12,12,12,0,0,1,12,0ZM9.6,16a2.78,2.78,0,0,1,0,1.8l-.1.2c0,.1-.1.1-.1.2a1.56,1.56,0,0,1-.6.8,2.11,2.11,0,0,1-2.1.8c-.5-.3-.2-1.3.6-2.2a9.25,9.25,0,0,1,2.1-1.5h0Zm10-10.9c-.5-2.1-4.1-2.8-7.4-1.6A16.36,16.36,0,0,0,6.5,6.8c-1.8,1.7-2.1,3.2-2,3.8.4,2.2,3.5,3.7,4.7,4.7h0c-.4.2-3.1,1.5-3.7,2.9a1.93,1.93,0,0,0,.6,2.7,4,4,0,0,0,4.1-1.6,4.21,4.21,0,0,0,.4-3.7,5.15,5.15,0,0,1,1.8-.1c2.1.2,2.5,1.6,2.4,2.1s-.5.9-.7.9-.2.1-.2.2.1.1.2.1a1.58,1.58,0,0,0,1.1-1.5c0-1.3-1.2-2.7-3.4-2.7a4.39,4.39,0,0,0-1.9.3l-.1-.1c-1.2-1.5-3.7-2.5-3.6-4.5,0-.7.3-2.6,4.8-4.8,3.7-1.8,6.7-1.3,7.2-.2.7,1.6-1.6,4.6-5.4,5a2.71,2.71,0,0,1-2.4-.6c-.2-.2-.2-.2-.3-.2s0,.3,0,.4A2.4,2.4,0,0,0,11.5,11a7,7,0,0,0,4.5-.5c2.2-.8,4-3.3,3.6-5.4Z" style="fill: #fff"/>
    <g style="isolation: isolate">
      <path d="M28.31,18.26a6.57,6.57,0,0,1-2.16-1l1.08-2.61a6.5,6.5,0,0,0,1.81.89,6.3,6.3,0,0,0,2,.34c1.27,0,1.9-.34,1.9-1a.84.84,0,0,0-.54-.8,9.66,9.66,0,0,0-1.74-.54,15.83,15.83,0,0,1-2.19-.66A3.65,3.65,0,0,1,27,11.76a3.16,3.16,0,0,1-.63-2.07,3.78,3.78,0,0,1,.58-2.07,4,4,0,0,1,1.73-1.45,6.69,6.69,0,0,1,2.84-.54,9.5,9.5,0,0,1,2.25.28,6.56,6.56,0,0,1,2,.81l-1,2.63a6.35,6.35,0,0,0-3.22-1,2.54,2.54,0,0,0-1.43.32.93.93,0,0,0-.45.81.81.81,0,0,0,.53.75,10.05,10.05,0,0,0,1.71.52,15.49,15.49,0,0,1,2.21.65,3.85,3.85,0,0,1,1.51,1.1,3.16,3.16,0,0,1,.64,2.07,3.66,3.66,0,0,1-.59,2,3.91,3.91,0,0,1-1.74,1.46,6.66,6.66,0,0,1-2.82.54A10,10,0,0,1,28.31,18.26Z" style="fill: #fff"/>
      <path d="M45.5,16H40.58l-.91,2.43H36.31l5.13-12.5h3.24l5.15,12.5H46.41Zm-1-2.6L43,9.35l-1.5,4Z" style="fill: #fff"/>
      <path d="M52.1,18.26a6.61,6.61,0,0,1-2.15-1L51,14.65a6.5,6.5,0,0,0,1.81.89,6.3,6.3,0,0,0,2,.34c1.26,0,1.9-.34,1.9-1a.84.84,0,0,0-.54-.8,9.93,9.93,0,0,0-1.74-.54,15,15,0,0,1-2.19-.66,3.65,3.65,0,0,1-1.51-1.11,3.16,3.16,0,0,1-.63-2.07,3.78,3.78,0,0,1,.58-2.07,3.92,3.92,0,0,1,1.73-1.45,6.65,6.65,0,0,1,2.83-.54,9.52,9.52,0,0,1,2.26.28,6.67,6.67,0,0,1,2,.81l-1,2.63a6.35,6.35,0,0,0-3.22-1,2.52,2.52,0,0,0-1.43.32.93.93,0,0,0-.45.81.81.81,0,0,0,.53.75,10.05,10.05,0,0,0,1.71.52,14.93,14.93,0,0,1,2.2.65,3.78,3.78,0,0,1,1.51,1.1A3.11,3.11,0,0,1,60,14.6a3.65,3.65,0,0,1-.58,2,4,4,0,0,1-1.74,1.46,6.71,6.71,0,0,1-2.83.54A10.06,10.06,0,0,1,52.1,18.26Z" style="fill: #fff"/>
      <path d="M62.85,18.26a6.57,6.57,0,0,1-2.16-1l1.08-2.61a6.5,6.5,0,0,0,1.81.89,6.36,6.36,0,0,0,2,.34c1.26,0,1.89-.34,1.89-1a.84.84,0,0,0-.54-.8,9.66,9.66,0,0,0-1.74-.54A15.83,15.83,0,0,1,63,12.87a3.65,3.65,0,0,1-1.51-1.11,3.16,3.16,0,0,1-.63-2.07,3.78,3.78,0,0,1,.58-2.07,4,4,0,0,1,1.74-1.45A6.65,6.65,0,0,1,66,5.63a9.64,9.64,0,0,1,2.26.28,6.79,6.79,0,0,1,2,.81l-1,2.63a6.33,6.33,0,0,0-3.22-1,2.54,2.54,0,0,0-1.43.32.93.93,0,0,0-.45.81.81.81,0,0,0,.54.75,9.49,9.49,0,0,0,1.71.52,15.31,15.31,0,0,1,2.2.65,3.85,3.85,0,0,1,1.51,1.1,3.16,3.16,0,0,1,.64,2.07,3.73,3.73,0,0,1-.58,2,4,4,0,0,1-1.75,1.46,6.63,6.63,0,0,1-2.82.54A10,10,0,0,1,62.85,18.26Z" style="fill: #fff"/>
    </g>
  </g>
</svg>
