<svg xmlns="http://www.w3.org/2000/svg" viewBox="0 0 120.59 24" height='25px'>
  <title>Ресурс 10</title>
  <g>
    <g>
      <path d="M30.83,8.64H27.56V5.3H37.87V8.64H34.6v9.43H30.83Z" style="fill: #fff"/>
      <path d="M48.13,14.82v3.25H38.85V5.3h9.07V8.55H42.55V10h4.72v3.1H42.55v1.68Z" style="fill: #fff"/>
      <path d="M49.58,5.3h3.77v9.43h5v3.34H49.58Z" style="fill: #fff"/>
      <path d="M68.72,14.82v3.25H59.43V5.3h9.08V8.55H63.13V10h4.72v3.1H63.13v1.68Z" style="fill: #fff"/>
      <path d="M77.56,11.34h3.27v5.39a7.11,7.11,0,0,1-2.3,1.21,8.37,8.37,0,0,1-2.57.42,6.11,6.11,0,0,1-3.21-.85,6,6,0,0,1-2.22-2.37,7.27,7.27,0,0,1-.81-3.46,7.2,7.2,0,0,1,.81-3.45,5.8,5.8,0,0,1,2.25-2.38A6.36,6.36,0,0,1,76,5,6.65,6.65,0,0,1,79,5.64a5.63,5.63,0,0,1,2.17,1.83L78.74,9.89a3.1,3.1,0,0,0-2.51-1.4,2.48,2.48,0,0,0-2,.86,3.46,3.46,0,0,0-.73,2.33A3.54,3.54,0,0,0,74.24,14a2.41,2.41,0,0,0,1.94.87,3.16,3.16,0,0,0,1.38-.31Z" style="fill: #fff"/>
      <path d="M87.22,14.86h-1v3.21H82.44V5.3h5.38a5.83,5.83,0,0,1,2.69.58,4.11,4.11,0,0,1,1.77,1.68,5,5,0,0,1,.63,2.55,5,5,0,0,1-.55,2.39,4.14,4.14,0,0,1-1.56,1.63l2.34,3.94h-4ZM88.72,9a1.51,1.51,0,0,0-1.14-.39H86.2v3h1.38a1.51,1.51,0,0,0,1.14-.39,1.5,1.5,0,0,0,.39-1.11A1.49,1.49,0,0,0,88.72,9Z" style="fill: #fff"/>
      <path d="M101.94,15.84H97.69l-.75,2.23H93.11L98,5.3h3.7l4.88,12.77h-3.89Zm-1-3.1L99.81,9.53l-1.08,3.21Z" style="fill: #fff"/>
      <path d="M117.16,18.07l0-5.82-2.43,4.67H113l-2.42-4.47v5.62h-3.43V5.3h3.09l3.64,6.8,3.54-6.8h3.1l0,12.77Z" style="fill: #fff"/>
    </g>
    <path d="M11.94,0A12,12,0,1,0,12,0Zm5,7.22a.83.83,0,0,1,.46.14.49.49,0,0,1,.17.33,1.71,1.71,0,0,1,0,.47c-.18,1.9-1,6.5-1.36,8.63-.17.9-.5,1.2-.82,1.23-.69.06-1.22-.46-1.9-.9-1.05-.7-1.65-1.13-2.68-1.8-1.18-.78-.41-1.21.26-1.91.18-.19,3.25-3,3.31-3.23a.26.26,0,0,0-.06-.22.28.28,0,0,0-.25,0Q13.91,10,9,13.29a2.25,2.25,0,0,1-1.3.48,9.07,9.07,0,0,1-1.86-.44c-.76-.25-1.35-.38-1.3-.79,0-.22.32-.44.89-.67,3.5-1.52,5.83-2.53,7-3C15.76,7.47,16.46,7.23,16.91,7.22Z" style="fill: #fff"/>
  </g>
</svg>
