<svg width="640" height="320" viewBox="0 0 640 320" fill="none" xmlns="http://www.w3.org/2000/svg">
<path d="M152.1 140.2C148.6 128.1 144.3 107 144.3 107H143.8C143.8 107 139.5 128.1 136 140.2L124.9 177.7H163L152.1 140.2ZM616 0H336V320H616C629.3 320 640 309.3 640 296V24C640 10.7 629.3 0 616 0ZM592 120C592 126.6 586.6 132 580 132H568.6C561.7 155.6 546.9 179.4 525.9 201.9C534.3 208.3 543 214.4 552 219.9C557.5 223.3 559.3 230.4 556.1 236.1L548.2 250C544.8 255.9 537.3 257.8 531.5 254.3C518.9 246.5 507 238.2 496.1 229.4C485.2 238.1 473.4 246.5 460.7 254.3C454.9 257.8 447.4 255.9 444 250L436.1 236.1C432.9 230.5 434.7 223.3 440.3 219.9C449.6 214.2 458.3 208.2 466.4 201.9C458.5 193.5 451.5 184.9 445.4 176.2C441.4 170.5 443.2 162.6 449.1 159.1L455.6 155.2L462.9 150.9C468.3 147.7 475.3 149.2 478.9 154.3C483.9 161.3 489.7 168.3 496.3 175.2C509.8 161 520.1 146.3 526.3 132H412C405.4 132 400 126.6 400 120V104C400 97.4 405.4 92 412 92H476V76C476 69.4 481.4 64 488 64H504C510.6 64 516 69.4 516 76V92H580C586.6 92 592 97.4 592 104V120ZM0 24V296C0 309.3 10.7 320 24 320H304V0H24C10.7 0 0 10.7 0 24ZM58.9 240.1L116.4 71C118.1 66.1 122.6 62.9 127.8 62.9H160.3C165.4 62.9 170 66.2 171.7 71L229.2 240.1C231.8 247.9 226.1 256 217.8 256H194.9C192.312 255.998 189.794 255.16 187.722 253.61C185.649 252.06 184.133 249.882 183.4 247.4L174 215.5H113.8L104.7 247.3C103.2 252.4 98.5 256 93.2 256H70.3C62.1 256 56.3 247.9 58.9 240.1Z" fill="white"/>
</svg>
